<?xml version="1.0" encoding="UTF-8"?>
<svg xmlns="http://www.w3.org/2000/svg" xmlns:xlink="http://www.w3.org/1999/xlink" width="44px" height="44px" viewBox="-2 -2 44 44" version="1.1">
<defs>
<filter id="alpha" filterUnits="objectBoundingBox" x="0%" y="0%" width="100%" height="100%">
  <feColorMatrix type="matrix" in="SourceGraphic" values="0 0 0 0 1 0 0 0 0 1 0 0 0 0 1 0 0 0 1 0"/>
</filter>
<mask id="mask0">
  <g filter="url(#alpha)">
<rect x="0" y="0" width="40" height="40" style="fill:rgb(0%,0%,0%);fill-opacity:0.9;stroke:none;"/>
  </g>
</mask>
<clipPath id="clip1">
  <rect x="0" y="0" width="40" height="40"/>
</clipPath>
<g id="surface10" clip-path="url(#clip1)">
<path style=" stroke:none;fill-rule:nonzero;fill:rgb(11.764706%,11.764706%,18.039216%);fill-opacity:1;" d="M 19.667969 24.277344 C 19.449219 24.296875 19.257812 24.304688 19.046875 24.316406 C 19.046875 24.117188 19.046875 23.953125 19.046875 23.761719 C 19.238281 23.761719 19.425781 23.738281 19.601562 23.773438 C 19.699219 23.789062 19.828125 23.898438 19.847656 23.984375 C 19.863281 24.0625 19.75 24.171875 19.667969 24.277344 Z M 19.667969 24.277344 "/>
</g>
</defs>
<g id="surface1">
<path style=" stroke:none;fill-rule:nonzero;fill:rgb(11.764706%,11.764706%,18.039216%);fill-opacity:1;" d="M 2.542969 0.0625 L 37.519531 0.0625 C 38.890625 0.0625 40 1.171875 40 2.542969 L 40 37.519531 C 40 38.890625 38.890625 40 37.519531 40 L 2.542969 40 C 1.171875 40 0.0625 38.890625 0.0625 37.519531 L 0.0625 2.542969 C 0.0625 1.171875 1.171875 0.0625 2.542969 0.0625 Z M 2.542969 0.0625 "/>
<path style=" stroke:none;fill-rule:nonzero;fill:rgb(38.039216%,68.235296%,100%);fill-opacity:1;" d="M 16.0625 16.246094 C 16.097656 16.738281 16.070312 17.210938 16.175781 17.652344 C 16.332031 18.289062 16.953125 18.71875 17.613281 18.726562 C 18.585938 18.738281 19.554688 18.730469 20.527344 18.734375 C 21.007812 18.734375 21.164062 18.882812 21.164062 19.355469 C 21.164062 20.066406 21.167969 20.78125 21.164062 21.492188 C 21.164062 21.910156 21.019531 22.070312 20.613281 22.070312 C 18.621094 22.074219 16.625 22.085938 14.628906 22.066406 C 13.5625 22.058594 12.75 21.40625 12.449219 20.382812 C 12.417969 20.265625 12.40625 20.140625 12.40625 20.019531 C 12.402344 17.476562 12.402344 14.933594 12.402344 12.390625 C 12.402344 12.269531 12.402344 12.144531 12.402344 11.96875 C 12.28125 11.96875 12.175781 11.96875 12.066406 11.96875 C 11.242188 11.96875 10.414062 11.96875 9.585938 11.96875 C 9.320312 11.972656 9.085938 11.914062 8.976562 11.644531 C 8.871094 11.386719 8.996094 11.195312 9.171875 11.011719 C 10.703125 9.414062 12.226562 7.8125 13.75 6.210938 C 14.171875 5.765625 14.371094 5.769531 14.792969 6.214844 C 16.3125 7.8125 17.824219 9.40625 19.347656 11 C 19.53125 11.191406 19.660156 11.390625 19.546875 11.660156 C 19.433594 11.933594 19.191406 11.972656 18.929688 11.96875 C 17.988281 11.96875 17.050781 11.96875 16.0625 11.96875 C 16.0625 13.394531 16.0625 14.804688 16.0625 16.246094 Z M 16.0625 16.246094 "/>
<path style=" stroke:none;fill-rule:nonzero;fill:rgb(100%,72.156864%,29.019609%);fill-opacity:1;" d="M 26.957031 33.53125 C 26.539062 33.972656 26.132812 34.402344 25.726562 34.824219 C 25.390625 35.175781 25.101562 35.183594 24.777344 34.835938 C 23.261719 33.226562 21.746094 31.617188 20.25 29.992188 C 20.136719 29.867188 20.09375 29.609375 20.128906 29.433594 C 20.167969 29.21875 20.382812 29.140625 20.617188 29.144531 C 21.542969 29.152344 22.472656 29.148438 23.441406 29.148438 C 23.441406 29.003906 23.441406 28.886719 23.441406 28.765625 C 23.441406 25.378906 23.441406 21.988281 23.441406 18.601562 C 23.441406 18.039062 23.558594 17.921875 24.132812 17.921875 C 24.910156 17.921875 25.683594 17.921875 26.457031 17.921875 C 26.855469 17.921875 27.039062 18.105469 27.039062 18.507812 C 27.039062 21.914062 27.039062 25.324219 27.039062 28.734375 C 27.039062 28.855469 27.039062 28.980469 27.039062 29.148438 C 27.269531 29.148438 27.480469 29.148438 27.695312 29.148438 C 28.417969 29.148438 29.140625 29.152344 29.863281 29.144531 C 30.113281 29.140625 30.320312 29.199219 30.425781 29.441406 C 30.527344 29.679688 30.429688 29.878906 30.261719 30.058594 C 29.164062 31.210938 28.070312 32.363281 26.957031 33.53125 Z M 26.957031 33.53125 "/>
<path style=" stroke:none;fill-rule:nonzero;fill:rgb(62.7451%,65.490198%,67.843139%);fill-opacity:1;" d="M 25.613281 15.875 C 22.835938 15.875 20.089844 15.875 17.324219 15.875 C 17.324219 15.15625 17.324219 14.449219 17.324219 13.707031 C 17.667969 13.707031 18.015625 13.707031 18.363281 13.707031 C 19.011719 13.707031 19.664062 13.722656 20.3125 13.699219 C 20.675781 13.6875 20.953125 13.804688 21.167969 14.078125 C 21.425781 14.40625 21.753906 14.519531 22.164062 14.515625 C 23.570312 14.503906 24.972656 14.511719 26.378906 14.511719 C 27 14.511719 27.355469 14.867188 27.359375 15.484375 C 27.363281 15.734375 27.359375 15.988281 27.332031 16.269531 C 26.855469 15.683594 26.21875 15.921875 25.613281 15.875 Z M 25.613281 15.875 "/>
<path style=" stroke:none;fill-rule:nonzero;fill:rgb(60.784316%,63.921571%,66.274512%);fill-opacity:1;" d="M 22.199219 26.363281 C 22.199219 26.597656 22.199219 26.800781 22.199219 27.039062 C 22.078125 27.039062 21.980469 27.039062 21.878906 27.039062 C 19.359375 27.039062 16.839844 27.027344 14.320312 27.046875 C 13.679688 27.054688 12.746094 26.300781 12.769531 25.492188 C 12.792969 24.761719 12.773438 24.027344 12.773438 23.289062 C 13.117188 23.445312 13.453125 23.597656 13.828125 23.773438 C 13.828125 24.195312 13.828125 24.679688 13.828125 25.164062 C 13.832031 25.707031 14.105469 25.984375 14.640625 25.984375 C 17.035156 25.984375 19.433594 25.984375 21.828125 25.984375 C 21.941406 25.984375 22.050781 25.984375 22.199219 25.984375 C 22.199219 26.113281 22.199219 26.222656 22.199219 26.363281 Z M 22.199219 26.363281 "/>
<path style=" stroke:none;fill-rule:nonzero;fill:rgb(72.156864%,74.117649%,75.294119%);fill-opacity:1;" d="M 20.15625 24.9375 C 20.210938 25.035156 20.28125 25.113281 20.292969 25.199219 C 20.308594 25.304688 20.273438 25.417969 20.257812 25.527344 C 20.144531 25.484375 19.996094 25.476562 19.925781 25.398438 C 19.789062 25.246094 19.703125 25.050781 19.589844 24.878906 C 19.46875 24.6875 19.304688 24.585938 19.03125 24.640625 C 19.03125 24.847656 19.054688 25.0625 19.019531 25.269531 C 19.003906 25.371094 18.878906 25.457031 18.804688 25.550781 C 18.730469 25.457031 18.597656 25.371094 18.59375 25.277344 C 18.574219 24.761719 18.585938 24.242188 18.582031 23.726562 C 18.582031 23.511719 18.683594 23.433594 18.890625 23.4375 C 19.125 23.445312 19.363281 23.4375 19.601562 23.441406 C 20.023438 23.445312 20.246094 23.585938 20.316406 23.894531 C 20.382812 24.183594 20.257812 24.375 19.851562 24.578125 C 19.949219 24.691406 20.046875 24.804688 20.15625 24.9375 Z M 20.15625 24.9375 "/>
<path style=" stroke:none;fill-rule:nonzero;fill:rgb(72.156864%,74.117649%,75.294119%);fill-opacity:1;" d="M 19.691406 24.265625 C 19.75 24.171875 19.863281 24.0625 19.847656 23.984375 C 19.828125 23.898438 19.699219 23.789062 19.601562 23.773438 C 19.425781 23.738281 19.238281 23.761719 19.046875 23.761719 C 19.046875 23.953125 19.046875 24.117188 19.046875 24.316406 C 19.257812 24.304688 19.449219 24.296875 19.691406 24.265625 Z M 19.691406 24.265625 "/>
<path style=" stroke:none;fill-rule:nonzero;fill:rgb(69.01961%,70.980394%,72.156864%);fill-opacity:1;" d="M 18.152344 24.121094 C 17.964844 24.253906 17.875 24.15625 17.796875 24.015625 C 17.675781 23.800781 17.507812 23.65625 17.246094 23.699219 C 16.960938 23.746094 16.8125 23.945312 16.78125 24.210938 C 16.753906 24.410156 16.765625 24.621094 16.796875 24.820312 C 16.839844 25.074219 17.015625 25.214844 17.273438 25.234375 C 17.515625 25.253906 17.683594 25.128906 17.789062 24.914062 C 17.8125 24.871094 17.820312 24.804688 17.855469 24.777344 C 17.914062 24.734375 18.011719 24.671875 18.058594 24.691406 C 18.125 24.722656 18.210938 24.835938 18.199219 24.890625 C 18.167969 25.027344 18.109375 25.171875 18.019531 25.273438 C 17.601562 25.75 16.691406 25.613281 16.414062 25.042969 C 16.203125 24.597656 16.277344 23.996094 16.585938 23.675781 C 16.871094 23.382812 17.34375 23.289062 17.734375 23.453125 C 18.050781 23.585938 18.203125 23.8125 18.152344 24.121094 Z M 18.152344 24.121094 "/>
<path style=" stroke:none;fill-rule:nonzero;fill:rgb(69.01961%,70.980394%,72.156864%);fill-opacity:1;" d="M 15.484375 23.621094 C 15.570312 23.523438 15.652344 23.453125 15.738281 23.382812 C 15.800781 23.464844 15.917969 23.542969 15.917969 23.628906 C 15.929688 24.089844 15.941406 24.558594 15.894531 25.019531 C 15.851562 25.414062 15.546875 25.585938 15.089844 25.550781 C 14.75 25.523438 14.519531 25.308594 14.519531 24.980469 C 14.519531 24.882812 14.613281 24.785156 14.664062 24.6875 C 14.746094 24.757812 14.863281 24.8125 14.902344 24.902344 C 14.976562 25.0625 14.992188 25.269531 15.234375 25.230469 C 15.476562 25.191406 15.476562 24.976562 15.480469 24.792969 C 15.488281 24.410156 15.484375 24.027344 15.484375 23.621094 Z M 15.484375 23.621094 "/>
<use xlink:href="#surface10" mask="url(#mask0)"/>
</g>
</svg>
